<svg id="visual" viewBox="0 0 900 600" width="900" height="600" xmlns="http://www.w3.org/2000/svg" xmlns:xlink="http://www.w3.org/1999/xlink" version="1.1"><g stroke-width="1" stroke-linejoin="bevel"><path d="M434 318L503 422L512 295Z" fill="#25296a" stroke="#25296a"></path><path d="M503 422L583 376L512 295Z" fill="#001629" stroke="#001629"></path><path d="M370 464L514 461L503 422Z" fill="#4d287d" stroke="#4d287d"></path><path d="M503 422L514 461L583 376Z" fill="#022451" stroke="#022451"></path><path d="M583 376L596 322L512 295Z" fill="#392a74" stroke="#392a74"></path><path d="M434 318L371 414L503 422Z" fill="#781c89" stroke="#781c89"></path><path d="M371 414L370 464L503 422Z" fill="#13275e" stroke="#13275e"></path><path d="M322 333L339 430L371 414Z" fill="#001629" stroke="#001629"></path><path d="M371 414L339 430L370 464Z" fill="#622484" stroke="#622484"></path><path d="M297 233L322 333L434 318Z" fill="#781c89" stroke="#781c89"></path><path d="M434 318L322 333L371 414Z" fill="#022451" stroke="#022451"></path><path d="M518 177L428 189L512 295Z" fill="#392a74" stroke="#392a74"></path><path d="M512 295L428 189L434 318Z" fill="#4d287d" stroke="#4d287d"></path><path d="M611 206L518 177L512 295Z" fill="#001629" stroke="#001629"></path><path d="M596 322L611 206L512 295Z" fill="#781c89" stroke="#781c89"></path><path d="M523 600L596 536L514 461Z" fill="#00101c" stroke="#00101c"></path><path d="M514 461L596 536L583 376Z" fill="#022451" stroke="#022451"></path><path d="M583 376L697 319L596 322Z" fill="#00101c" stroke="#00101c"></path><path d="M596 322L697 319L611 206Z" fill="#13275e" stroke="#13275e"></path><path d="M714 390L697 319L583 376Z" fill="#002044" stroke="#002044"></path><path d="M428 189L297 233L434 318Z" fill="#00101c" stroke="#00101c"></path><path d="M239 512L330 527L339 430Z" fill="#25296a" stroke="#25296a"></path><path d="M680 489L714 390L583 376Z" fill="#001c36" stroke="#001c36"></path><path d="M339 430L330 527L370 464Z" fill="#00101c" stroke="#00101c"></path><path d="M438 600L523 600L514 461Z" fill="#25296a" stroke="#25296a"></path><path d="M239 512L339 430L189 409Z" fill="#13275e" stroke="#13275e"></path><path d="M596 536L680 489L583 376Z" fill="#00101c" stroke="#00101c"></path><path d="M438 600L514 461L370 464Z" fill="#25296a" stroke="#25296a"></path><path d="M596 536L621 600L680 489Z" fill="#00101c" stroke="#00101c"></path><path d="M330 527L438 600L370 464Z" fill="#002044" stroke="#002044"></path><path d="M805 236L670 181L697 319Z" fill="#022451" stroke="#022451"></path><path d="M697 319L670 181L611 206Z" fill="#4d287d" stroke="#4d287d"></path><path d="M631 110L510 96L518 177Z" fill="#13275e" stroke="#13275e"></path><path d="M631 110L518 177L611 206Z" fill="#392a74" stroke="#392a74"></path><path d="M518 177L510 96L428 189Z" fill="#4d287d" stroke="#4d287d"></path><path d="M428 189L372 107L297 233Z" fill="#4d287d" stroke="#4d287d"></path><path d="M510 96L372 107L428 189Z" fill="#00101c" stroke="#00101c"></path><path d="M523 600L621 600L596 536Z" fill="#622484" stroke="#622484"></path><path d="M680 489L763 423L714 390Z" fill="#25296a" stroke="#25296a"></path><path d="M714 390L818 278L697 319Z" fill="#001c36" stroke="#001c36"></path><path d="M766 460L763 423L680 489Z" fill="#4d287d" stroke="#4d287d"></path><path d="M670 181L631 110L611 206Z" fill="#781c89" stroke="#781c89"></path><path d="M189 409L339 430L322 333Z" fill="#001c36" stroke="#001c36"></path><path d="M330 527L294 600L438 600Z" fill="#781c89" stroke="#781c89"></path><path d="M265 115L220 233L297 233Z" fill="#001629" stroke="#001629"></path><path d="M297 233L220 233L322 333Z" fill="#022451" stroke="#022451"></path><path d="M781 600L766 460L680 489Z" fill="#392a74" stroke="#392a74"></path><path d="M162 269L189 409L322 333Z" fill="#13275e" stroke="#13275e"></path><path d="M239 512L294 600L330 527Z" fill="#001629" stroke="#001629"></path><path d="M621 600L700 600L680 489Z" fill="#4d287d" stroke="#4d287d"></path><path d="M303 0L265 115L372 107Z" fill="#25296a" stroke="#25296a"></path><path d="M372 107L265 115L297 233Z" fill="#25296a" stroke="#25296a"></path><path d="M134 206L162 269L220 233Z" fill="#622484" stroke="#622484"></path><path d="M220 233L162 269L322 333Z" fill="#25296a" stroke="#25296a"></path><path d="M818 278L805 236L697 319Z" fill="#25296a" stroke="#25296a"></path><path d="M670 181L731 80L631 110Z" fill="#622484" stroke="#622484"></path><path d="M818 278L714 390L763 423Z" fill="#4d287d" stroke="#4d287d"></path><path d="M900 313L818 278L900 405Z" fill="#392a74" stroke="#392a74"></path><path d="M569 0L517 0L510 96Z" fill="#00101c" stroke="#00101c"></path><path d="M510 96L412 0L372 107Z" fill="#001629" stroke="#001629"></path><path d="M569 0L510 96L631 110Z" fill="#25296a" stroke="#25296a"></path><path d="M265 115L201 134L220 233Z" fill="#25296a" stroke="#25296a"></path><path d="M188 0L201 134L265 115Z" fill="#781c89" stroke="#781c89"></path><path d="M517 0L412 0L510 96Z" fill="#781c89" stroke="#781c89"></path><path d="M683 0L569 0L631 110Z" fill="#022451" stroke="#022451"></path><path d="M239 512L213 600L294 600Z" fill="#392a74" stroke="#392a74"></path><path d="M91 528L213 600L239 512Z" fill="#022451" stroke="#022451"></path><path d="M116 437L239 512L189 409Z" fill="#781c89" stroke="#781c89"></path><path d="M805 236L731 80L670 181Z" fill="#00101c" stroke="#00101c"></path><path d="M134 206L125 276L162 269Z" fill="#4d287d" stroke="#4d287d"></path><path d="M162 269L125 276L189 409Z" fill="#25296a" stroke="#25296a"></path><path d="M125 276L116 437L189 409Z" fill="#25296a" stroke="#25296a"></path><path d="M700 600L781 600L680 489Z" fill="#022451" stroke="#022451"></path><path d="M900 405L818 278L763 423Z" fill="#002044" stroke="#002044"></path><path d="M201 134L134 206L220 233Z" fill="#13275e" stroke="#13275e"></path><path d="M412 0L303 0L372 107Z" fill="#25296a" stroke="#25296a"></path><path d="M201 134L98 61L134 206Z" fill="#622484" stroke="#622484"></path><path d="M731 80L683 0L631 110Z" fill="#4d287d" stroke="#4d287d"></path><path d="M805 236L782 67L731 80Z" fill="#622484" stroke="#622484"></path><path d="M731 80L783 0L683 0Z" fill="#392a74" stroke="#392a74"></path><path d="M900 206L782 67L805 236Z" fill="#25296a" stroke="#25296a"></path><path d="M900 405L763 423L766 460Z" fill="#622484" stroke="#622484"></path><path d="M818 278L900 206L805 236Z" fill="#781c89" stroke="#781c89"></path><path d="M900 481L900 405L766 460Z" fill="#4d287d" stroke="#4d287d"></path><path d="M781 600L900 481L766 460Z" fill="#392a74" stroke="#392a74"></path><path d="M0 477L91 528L116 437Z" fill="#622484" stroke="#622484"></path><path d="M116 437L91 528L239 512Z" fill="#25296a" stroke="#25296a"></path><path d="M69 600L91 528L0 600Z" fill="#4d287d" stroke="#4d287d"></path><path d="M900 313L900 206L818 278Z" fill="#001c36" stroke="#001c36"></path><path d="M900 0L783 0L782 67Z" fill="#25296a" stroke="#25296a"></path><path d="M782 67L783 0L731 80Z" fill="#001c36" stroke="#001c36"></path><path d="M303 0L188 0L265 115Z" fill="#022451" stroke="#022451"></path><path d="M781 600L900 600L900 481Z" fill="#25296a" stroke="#25296a"></path><path d="M0 401L116 437L125 276Z" fill="#392a74" stroke="#392a74"></path><path d="M91 528L69 600L213 600Z" fill="#13275e" stroke="#13275e"></path><path d="M188 0L98 61L201 134Z" fill="#4d287d" stroke="#4d287d"></path><path d="M0 263L0 401L125 276Z" fill="#002044" stroke="#002044"></path><path d="M0 263L125 276L0 223Z" fill="#022451" stroke="#022451"></path><path d="M0 223L125 276L134 206Z" fill="#622484" stroke="#622484"></path><path d="M900 206L900 79L782 67Z" fill="#00101c" stroke="#00101c"></path><path d="M0 401L0 477L116 437Z" fill="#001629" stroke="#001629"></path><path d="M98 61L0 223L134 206Z" fill="#622484" stroke="#622484"></path><path d="M188 0L83 0L98 61Z" fill="#25296a" stroke="#25296a"></path><path d="M98 61L0 71L0 223Z" fill="#002044" stroke="#002044"></path><path d="M0 477L0 600L91 528Z" fill="#781c89" stroke="#781c89"></path><path d="M900 79L900 0L782 67Z" fill="#00101c" stroke="#00101c"></path><path d="M83 0L0 71L98 61Z" fill="#4d287d" stroke="#4d287d"></path><path d="M83 0L0 0L0 71Z" fill="#022451" stroke="#022451"></path></g></svg>